<?xml version="1.0" standalone="no"?>
<!DOCTYPE svg PUBLIC "-//W3C//DTD SVG 20010904//EN"
 "http://www.w3.org/TR/2001/REC-SVG-20010904/DTD/svg10.dtd">
<svg version="1.0" xmlns="http://www.w3.org/2000/svg"
 width="512.000000pt" height="512.000000pt" viewBox="0 0 512.000000 512.000000"
 preserveAspectRatio="xMidYMid meet">
<metadata>
Created by potrace 1.14, written by Peter Selinger 2001-2017
</metadata>
<g transform="translate(0.000000,512.000000) scale(0.100000,-0.100000)"
fill="#000000" stroke="none">
<path d="M2141 3903 c-6 -21 -65 -258 -132 -528 -67 -269 -125 -493 -129 -498
-3 -4 -24 7 -46 24 -81 66 -188 99 -319 99 -203 0 -383 -83 -547 -252 l-77
-79 -20 39 c-54 105 -182 195 -393 274 -156 58 -184 72 -220 106 -37 34 -44
77 -23 149 31 109 98 188 196 233 32 14 66 20 124 20 106 0 149 -22 231 -116
l62 -71 122 122 123 123 -47 55 c-88 104 -201 174 -323 203 -100 24 -265 15
-361 -19 -129 -45 -264 -144 -332 -242 l-30 -44 0 -328 0 -329 48 -36 c63 -48
134 -82 255 -125 266 -92 324 -163 265 -320 -40 -107 -183 -221 -318 -252 -64
-15 -139 -13 -196 4 -27 8 -50 15 -51 15 -2 0 -3 -78 -3 -174 l0 -173 80 -7
c220 -20 450 67 625 236 l83 79 33 -61 c39 -73 113 -150 182 -190 82 -47 150
-63 267 -64 117 -1 194 16 294 64 33 16 62 27 64 25 2 -2 -1 -19 -6 -39 l-10
-36 168 0 168 0 81 326 c45 179 89 340 97 358 39 75 151 160 253 190 81 24
174 20 184 -8 3 -7 -42 -199 -99 -427 -57 -228 -103 -420 -104 -426 0 -10 39
-13 165 -13 l164 0 10 38 c6 20 15 60 22 87 7 28 13 52 15 54 2 2 30 -24 63
-57 122 -124 296 -168 499 -126 128 26 243 87 368 193 l58 50 32 -48 c69 -102
187 -179 309 -202 72 -14 207 -6 290 16 83 22 187 75 273 140 82 61 77 69 42
-73 l-18 -72 166 2 166 3 68 270 67 270 0 660 -1 660 -112 -445 c-62 -245
-114 -450 -117 -457 -2 -7 -27 18 -54 54 -58 77 -149 144 -228 169 -82 25
-240 30 -332 9 -123 -27 -300 -128 -384 -219 l-24 -26 -32 48 c-69 102 -182
178 -304 203 -88 18 -242 7 -335 -25 -93 -32 -192 -88 -258 -145 -25 -23 -49
-41 -52 -41 -3 0 -13 15 -22 32 -45 87 -117 144 -218 173 -86 25 -236 17 -333
-18 -40 -14 -73 -21 -73 -16 0 5 54 225 120 489 66 264 120 484 120 490 0 6
-60 10 -165 10 l-164 0 -10 -37z m-570 -1230 c24 -4 53 -26 101 -75 l68 -69
36 28 c32 24 36 25 31 8 -4 -11 -27 -105 -53 -210 -26 -104 -50 -194 -55 -199
-4 -5 -19 15 -33 43 -15 28 -29 51 -33 51 -3 0 -29 -17 -57 -38 -105 -79 -208
-122 -291 -122 -96 0 -178 62 -190 144 -9 58 6 138 39 209 80 167 263 264 437
230z m1940 -19 c88 -51 102 -190 33 -327 -91 -181 -320 -287 -464 -214 -83 41
-110 113 -85 229 31 151 133 268 277 320 69 24 190 20 239 -8z m999 4 c77 -40
105 -106 89 -210 -30 -189 -200 -345 -388 -356 -66 -3 -82 0 -121 20 -102 54
-118 196 -38 351 84 167 318 266 458 195z"/>
</g>
</svg>
